<svg width="90" height="58" viewBox="0 0 90 58" fill="none" xmlns="http://www.w3.org/2000/svg">
<path fill-rule="evenodd" clip-rule="evenodd" d="M90 0H0L30.5 29L0 58H90V0ZM58.1605 22.765H66.6655V19H54.5905L54.3655 30.625H59.3605C60.8905 30.625 61.9855 30.9 62.6455 31.45C63.3055 31.99 63.6355 32.7 63.6355 33.58C63.6355 34.46 63.3305 35.19 62.7205 35.77C62.1205 36.34 61.2605 36.625 60.1405 36.625C59.2005 36.625 58.2555 36.415 57.3055 35.995C56.3555 35.575 55.5905 35.045 55.0105 34.405L52.7305 37.24C54.5805 39.33 57.0605 40.375 60.1705 40.375C61.6005 40.375 62.8905 40.105 64.0405 39.565C65.1905 39.015 66.1105 38.195 66.8005 37.105C67.4905 36.015 67.8355 34.74 67.8355 33.28C67.8355 31.44 67.1955 29.93 65.9155 28.75C64.6455 27.56 62.8355 26.965 60.4855 26.965H58.0705L58.1605 22.765Z" fill="#54CCE1"/>
</svg>
