<svg width="90" height="58" viewBox="0 0 90 58" fill="none" xmlns="http://www.w3.org/2000/svg">
<path fill-rule="evenodd" clip-rule="evenodd" d="M90 0H0L30.5 29L0 58H90V0ZM60.1104 18.625C57.1404 18.625 54.7504 19.83 52.9404 22.24L55.5504 24.805C56.1904 24.065 56.8304 23.495 57.4704 23.095C58.1204 22.695 58.9004 22.495 59.8104 22.495C60.7604 22.495 61.5304 22.79 62.1204 23.38C62.7204 23.96 63.0204 24.71 63.0204 25.63C63.0204 26.86 62.4454 28.06 61.2954 29.23L53.8704 36.835V40H67.7454V36.205H59.7204L64.2054 31.54C64.8554 30.86 65.3804 30.25 65.7804 29.71C66.1804 29.16 66.5204 28.51 66.8004 27.76C67.0904 27.01 67.2354 26.225 67.2354 25.405C67.2354 23.375 66.5904 21.74 65.3004 20.5C64.0204 19.25 62.2904 18.625 60.1104 18.625Z" fill="#54CCE1"/>
</svg>
