<svg width="90" height="58" viewBox="0 0 90 58" fill="none" xmlns="http://www.w3.org/2000/svg">
<path fill-rule="evenodd" clip-rule="evenodd" d="M90 0H0L30.5 29L0 58H90V0ZM65.2552 20.29C63.8852 19.18 62.0902 18.625 59.8702 18.625C58.2702 18.625 56.8852 18.92 55.7152 19.51C54.5452 20.09 53.5952 20.88 52.8652 21.88L55.4152 24.445C55.8852 23.825 56.4802 23.315 57.2002 22.915C57.9302 22.515 58.7502 22.315 59.6602 22.315C60.6702 22.315 61.5002 22.55 62.1502 23.02C62.8102 23.48 63.1402 24.12 63.1402 24.94C63.1402 25.79 62.7952 26.45 62.1052 26.92C61.4152 27.38 60.5352 27.61 59.4652 27.61H57.0052V31.21H59.4502C60.6402 31.21 61.6202 31.45 62.3902 31.93C63.1702 32.41 63.5602 33.085 63.5602 33.955C63.5602 34.845 63.2152 35.525 62.5252 35.995C61.8452 36.455 60.9652 36.685 59.8852 36.685C58.9752 36.685 58.1052 36.51 57.2752 36.16C56.4452 35.81 55.7252 35.315 55.1152 34.675L52.7002 37.33C53.5102 38.31 54.5402 39.065 55.7902 39.595C57.0502 40.115 58.4652 40.375 60.0352 40.375C60.8352 40.375 61.6102 40.295 62.3602 40.135C63.1102 39.975 63.8152 39.73 64.4752 39.4C65.1352 39.07 65.7052 38.67 66.1852 38.2C66.6752 37.72 67.0602 37.14 67.3402 36.46C67.6302 35.78 67.7752 35.04 67.7752 34.24C67.7752 33.12 67.4602 32.15 66.8302 31.33C66.2002 30.51 65.3152 29.875 64.1752 29.425C65.1752 28.955 65.9452 28.32 66.4852 27.52C67.0352 26.71 67.3102 25.755 67.3102 24.655C67.3102 22.845 66.6252 21.39 65.2552 20.29Z" fill="#54CCE1"/>
</svg>
