<svg width="24" height="24" viewBox="0 0 19 22" fill="none" xmlns="http://www.w3.org/2000/svg">
<path d="M0 19.1808V22.0002H12.2808V19.1808C12.2808 17.4706 10.9869 16.1533 9.30705 16.1533H2.99641C1.38471 16.1533 0 17.4937 0 19.1808Z" fill="#5A20AA"/>
<path d="M6.12913 14.9051C8.01324 14.9051 9.55685 13.3336 9.55685 11.4154C9.55685 9.49728 8.01324 7.92578 6.12913 7.92578C4.24502 7.92578 2.70142 9.49728 2.70142 11.4154C2.72412 13.3336 4.24502 14.9051 6.12913 14.9051Z" fill="#5A20AA"/>
<path d="M14.1649 15.4135C15.6631 15.4135 16.8436 14.1656 16.8436 12.6865C16.8436 11.2074 15.6177 9.95947 14.1649 9.95947C12.6667 9.95947 11.4863 11.2074 11.4863 12.6865C11.4863 14.1656 12.6667 15.4135 14.1649 15.4135Z" fill="#5A20AA"/>
<path d="M16.6391 16.4307H12.0083C12.7801 17.1009 13.2568 18.1177 13.2568 19.227L13.3703 22.0003H18.9999V18.811C18.9999 17.4706 17.9557 16.4307 16.6391 16.4307Z" fill="#5A20AA"/>
<path d="M17.2293 3.04944C16.6618 0.853961 14.4599 -0.440218 12.3261 0.137541C10.1923 0.715299 8.8984 2.93389 9.46591 5.12937C9.73831 6.16934 10.3739 7.00131 11.1911 7.53285L10.1469 9.17368L14.3918 8.04128C16.5029 7.46352 17.7968 5.22181 17.2293 3.04944ZM11.7359 5.61469H11.0776V4.11252H11.7359V5.61469ZM13.0298 5.61469H12.3715V2.88767H13.0298V5.61469ZM14.3237 5.61469H13.6654V3.6272H14.3237V5.61469ZM15.6176 5.61469H14.9593V2.10192H15.6176V5.61469Z" fill="#5A20AA"/>
</svg>
