<svg width="24" height="24" viewBox="0 0 18 24" fill="none" xmlns="http://www.w3.org/2000/svg">
<path d="M1.75196 24H16.248C17.2088 24 18 23.2364 18 22.3091V6.40909C18 5.48182 17.2088 4.71818 16.248 4.71818H12.6311V3.43636C12.6311 2.97273 12.2637 2.61818 11.7834 2.61818H11.1617C11.19 2.45455 11.2182 2.29091 11.2182 2.12727C11.2182 0.954545 10.2292 0 9.01413 0C7.79906 0 6.81005 0.954545 6.81005 2.12727C6.81005 2.29091 6.8383 2.45455 6.86656 2.61818H6.2449C5.76452 2.61818 5.39717 2.97273 5.39717 3.43636V4.71818H1.75196C0.791208 4.71818 0 5.48182 0 6.40909V22.3091C0.0282575 23.2364 0.791208 24 1.75196 24ZM7.99686 2.45455C7.9686 2.34545 7.94034 2.23636 7.94034 2.12727C7.94034 1.55455 8.42072 1.09091 9.01413 1.09091C9.60753 1.09091 10.0879 1.55455 10.0879 2.12727C10.0879 2.23636 10.0597 2.34545 10.0314 2.45455C10.0031 2.50909 10.0031 2.56364 10.0031 2.64545H7.99686C8.02512 2.59091 7.99686 2.50909 7.99686 2.45455ZM3.50392 9.08182H14.5243C14.8352 9.08182 15.0895 9.32727 15.0895 9.62727C15.0895 9.92727 14.8352 10.1727 14.5243 10.1727H3.50392C3.19309 10.1727 2.93878 9.92727 2.93878 9.62727C2.93878 9.32727 3.19309 9.08182 3.50392 9.08182ZM3.50392 12H14.5243C14.8352 12 15.0895 12.2455 15.0895 12.5455C15.0895 12.8455 14.8352 13.0909 14.5243 13.0909H3.50392C3.19309 13.0909 2.93878 12.8455 2.93878 12.5455C2.93878 12.2455 3.19309 12 3.50392 12ZM3.50392 14.9182H14.5243C14.8352 14.9182 15.0895 15.1636 15.0895 15.4636C15.0895 15.7636 14.8352 16.0091 14.5243 16.0091H3.50392C3.19309 16.0091 2.93878 15.7636 2.93878 15.4636C2.93878 15.1636 3.19309 14.9182 3.50392 14.9182ZM3.50392 17.8091H14.5243C14.8352 17.8091 15.0895 18.0545 15.0895 18.3545C15.0895 18.6545 14.8352 18.9 14.5243 18.9H3.50392C3.19309 18.9 2.93878 18.6545 2.93878 18.3545C2.93878 18.0545 3.19309 17.8091 3.50392 17.8091Z" fill="#85A32A"/>
</svg>
