<svg width="24" height="24" viewBox="0 0 23 21" fill="none" xmlns="http://www.w3.org/2000/svg">
<path d="M21.0833 9.54492H1.91667C1.40834 9.54492 0.920823 9.74607 0.561379 10.1041C0.201934 10.4621 0 10.9477 0 11.4541C0 11.9604 0.201934 12.446 0.561379 12.8041C0.920823 13.1621 1.40834 13.3633 1.91667 13.3633H21.0833C21.5917 13.3633 22.0792 13.1621 22.4386 12.8041C22.7981 12.446 23 11.9604 23 11.4541C23 10.9477 22.7981 10.4621 22.4386 10.1041C22.0792 9.74607 21.5917 9.54492 21.0833 9.54492Z" fill="#FB5E2C"/>
<path d="M1.91675 17.1817C1.91802 18.194 2.32229 19.1645 3.04091 19.8803C3.75952 20.5961 4.73381 20.9988 5.75008 21.0001H17.2501C18.2663 20.9988 19.2406 20.5961 19.9592 19.8803C20.6779 19.1645 21.0821 18.194 21.0834 17.1817V15.2725H1.91675V17.1817Z" fill="#FB5E2C"/>
<path d="M11.5001 0C9.29198 0.00304907 7.15247 0.764208 5.44211 2.15519C3.73176 3.54617 2.55515 5.48192 2.1106 7.63619H20.8898C20.4452 5.48188 19.2686 3.54609 17.5582 2.15511C15.8478 0.764124 13.7082 0.00299218 11.5001 0V0Z" fill="#FB5E2C"/>
</svg>
