<svg width="24" height="24" viewBox="0 0 18 15" fill="none" xmlns="http://www.w3.org/2000/svg">
<path d="M16.8047 0.375C17.4467 0.375 17.9712 0.97926 17.9994 1.75073C17.9994 1.75677 18 1.76763 18 1.76763V9.95028C18 10.7314 17.4639 11.3665 16.8053 11.3665H6.46433L3.62448 14.4687C3.53084 14.5701 3.40048 14.625 3.26705 14.625C3.19912 14.625 3.13057 14.6111 3.06631 14.5821C2.87474 14.4964 2.76335 14.2978 2.79028 14.0932L3.14893 11.3665H1.1947C0.536144 11.3665 0 10.7308 0 9.95028V1.79178C0 1.01005 0.536144 0.375 1.1947 0.375H16.8047Z" fill="#FEC343"/>
<path d="M13.6575 5.77811L11.674 4.21301C11.4807 4.06051 11.1664 4.06051 10.9731 4.21301C10.7798 4.36552 10.7798 4.61353 10.9731 4.76603L12.6052 6.05385L10.9711 7.3432C10.7779 7.4957 10.7779 7.74372 10.9711 7.89622C11.1234 8.01637 11.5002 8.03178 11.672 7.89622L13.6555 6.33113C13.8508 6.17862 13.8508 5.93215 13.6575 5.77811Z" fill="white"/>
<path d="M6.71461 4.21301C6.52133 4.06051 6.20702 4.06051 6.01374 4.21301L4.02826 5.77811C3.83498 5.93061 3.83498 6.17862 4.02826 6.33113L6.01179 7.89776C6.18359 8.03332 6.56038 8.01792 6.71266 7.89776C6.90593 7.74526 6.90593 7.49724 6.71266 7.34474L5.08054 6.05693L6.71461 4.76757C6.90789 4.61353 6.90789 4.36706 6.71461 4.21301Z" fill="white"/>
<path d="M10.2305 2.54447C9.96893 2.47978 9.6917 2.59377 9.60971 2.80173L7.1303 9.0621C7.0483 9.26852 7.19082 9.49497 7.45633 9.55197C7.73941 9.61204 8.01078 9.46262 8.07716 9.29471L10.5566 3.03434C10.6366 2.82792 10.4921 2.60917 10.2305 2.54447Z" fill="white"/>
</svg>
