<svg width="24" height="24" viewBox="0 0 23 22" fill="none" xmlns="http://www.w3.org/2000/svg">
<path d="M5.63864 0.00119783C5.29188 0.0231978 4.96526 0.246396 4.81899 0.560996C4.67273 0.875629 4.71294 1.26866 4.91989 1.54728C5.9163 2.62512 5.56906 2.67309 5.011 3.65921C4.7485 4.12923 4.59095 4.84036 4.73767 5.67017C4.8064 6.18682 5.35396 6.58783 5.86831 6.49821C6.38266 6.40856 6.7617 5.84604 6.65097 5.33671C6.55758 4.80853 6.60586 4.7704 6.70158 4.59899C7.3357 3.71624 7.86254 2.56469 7.29885 1.50684C7.02263 1.01226 6.70623 0.714351 6.47887 0.405412C6.29013 0.142189 5.96249 -0.0154316 5.63864 0.00119783ZM8.87808 0.00119783C8.53132 0.0231978 8.20469 0.246396 8.05843 0.560996C7.91217 0.875629 7.95237 1.26866 8.15933 1.54728C9.15573 2.62512 8.80849 2.67309 8.25044 3.65921C7.98794 4.12923 7.83039 4.84036 7.97711 5.67017C8.04584 6.18682 8.59339 6.58783 9.10775 6.49821C9.6221 6.40856 10.0011 5.84604 9.8904 5.33671C9.79702 4.80853 9.8453 4.7704 9.94102 4.59899C10.5751 3.71624 11.102 2.56469 10.5383 1.50684C10.2621 1.01226 9.94566 0.714351 9.71831 0.405412C9.52956 0.142189 9.20192 -0.0154316 8.87808 0.00119783ZM12.1175 0.00119783C11.7708 0.0231978 11.4441 0.246396 11.2979 0.560996C11.1516 0.875629 11.1918 1.26866 11.3988 1.54728C12.3952 2.62512 12.0479 2.67309 11.4899 3.65921C11.2274 4.12923 11.0698 4.84036 11.2165 5.67017C11.2853 6.18682 11.8328 6.58783 12.3472 6.49821C12.8615 6.40856 13.2406 5.84604 13.1298 5.33671C13.0365 4.80853 13.0847 4.7704 13.1805 4.59899C13.8146 3.71624 14.3414 2.56469 13.7777 1.50684C13.5015 1.01226 13.1851 0.714351 12.9577 0.405412C12.769 0.142189 12.4414 -0.0154316 12.1175 0.00119783ZM17.5638 7.08486C12.3255 7.1836 6.91517 7.1319 1.61972 7.1353C0.485915 7.12106 0.0295631 7.47042 0 8.42878C3.56338e-05 14.3444 1.10953 18.0046 4.81866 21.707C4.99738 21.8901 5.25098 21.998 5.50704 22L13.2817 21.9799C13.5363 21.9799 13.7897 21.8764 13.9701 21.697C14.8412 20.8308 15.5632 19.9625 16.1668 19.0697C17.5403 18.9913 19.0865 18.3832 20.4186 17.281C21.8466 16.0996 23 14.2807 23 11.9759C23.0016 11.2851 22.6515 10.6467 22.1901 10.258C21.1781 9.51177 19.9208 9.3675 18.7786 9.45984C18.7868 9.12288 18.7887 8.78151 18.7887 8.42906C18.671 7.59581 18.3026 7.23058 17.5638 7.08486V7.08486ZM21.0563 11.9657C21.2183 13.5885 20.164 14.953 19.1835 15.7853C18.6357 16.2387 18.0076 16.5869 17.412 16.8161C18.1021 15.2202 18.4891 13.4813 18.6672 11.4603C19.5986 11.3249 20.5704 11.0015 21.0563 11.9657Z" fill="#FEC343"/>
</svg>
