<svg width="32" height="24" viewBox="0 0 32 23" fill="none" xmlns="http://www.w3.org/2000/svg">
<path d="M14.2997 9.94484C15.5717 5.26473 20.507 2.50592 25.2897 3.73753C30.0723 4.96914 32.9725 9.69852 31.7005 14.3786C31.0899 16.5955 29.6653 18.369 27.8336 19.5021L30.1741 22.9999L20.6596 20.5859C15.9279 19.3543 13.0277 14.5757 14.2997 9.94484Z" fill="#FEC343"/>
<path d="M21.946 14.0742V12.2458H22.474C23.0094 12.2458 23.4145 12.1651 23.6895 12.0038C23.9682 11.8425 24.1075 11.604 24.1075 11.2885C24.1075 10.9981 23.97 10.7777 23.695 10.6271C23.42 10.4729 23.0185 10.3958 22.4905 10.3958C22.2485 10.3958 21.9699 10.4102 21.6545 10.4389L21.55 9.0245C21.8837 8.97789 22.254 8.95459 22.661 8.95459C23.6144 8.95459 24.3569 9.15536 24.8885 9.5569C25.4239 9.95486 25.6915 10.4962 25.6915 11.181C25.6915 11.8048 25.488 12.3103 25.081 12.6975C24.674 13.0847 24.0855 13.3375 23.3155 13.4558L23.2715 14.0742H21.946ZM22.6115 14.7303C22.8865 14.7303 23.1285 14.8325 23.3375 15.0369C23.5465 15.2376 23.651 15.4742 23.651 15.7467C23.651 16.0228 23.5465 16.2648 23.3375 16.4727C23.1285 16.6771 22.8865 16.7793 22.6115 16.7793C22.3292 16.7793 22.0835 16.6771 21.8745 16.4727C21.6655 16.2648 21.561 16.0246 21.561 15.7521C21.561 15.4725 21.6655 15.2322 21.8745 15.0315C22.0835 14.8307 22.3292 14.7303 22.6115 14.7303Z" fill="white"/>
<path d="M19.7003 7.5005C18.4283 2.82039 13.493 0.0615869 8.71032 1.2932C3.92766 2.5248 1.02753 7.25418 2.29952 11.9343C2.91007 14.1512 4.33469 15.9247 6.16635 17.0578L3.8259 20.5556L13.3404 18.1416C18.0721 16.91 20.9723 12.1314 19.7003 7.5005ZM7.38746 12.9688H5.91196V9.76666H7.38746V12.9688ZM10.2876 12.9688H8.81208V7.15565H10.2876V12.9688ZM13.1877 12.9688H11.7122V8.73211H13.1877V12.9688ZM16.0878 12.9688H14.6123V5.48067H16.0878V12.9688Z" fill="#FB5E2C"/>
<path fill-rule="evenodd" clip-rule="evenodd" d="M2.2994 11.9344C1.02742 7.25429 3.92754 2.52491 8.71021 1.29331C13.4929 0.0616977 18.4282 2.8205 19.7002 7.50061C20.9721 12.1315 18.072 16.9101 13.3402 18.1417L3.82578 20.5557L6.16624 17.0579C5.98107 16.9433 5.80006 16.8223 5.62362 16.6948C4.05485 15.5617 2.84823 13.9272 2.2994 11.9344ZM4.78829 17.319C3.16743 16.07 1.91866 14.3181 1.3353 12.1999L1.3344 12.1967C-0.0926548 6.94598 3.17158 1.68696 8.46083 0.3249C13.7475 -1.0365 19.2421 2.00488 20.6648 7.23719C22.0919 12.4356 18.8319 17.7456 13.5921 19.1095L13.5862 19.111L1.54504 22.166L4.78829 17.319ZM7.38734 12.969V9.76677H5.91184V12.969H7.38734ZM10.2875 12.969V7.15576H8.81197V12.969H10.2875ZM13.1876 12.969V8.73222H11.7121V12.969H13.1876ZM16.0877 12.969V5.48078H14.6122V12.969H16.0877Z" fill="white"/>
</svg>
