<svg width="24" height="24" viewBox="0 0 20 12" fill="none" xmlns="http://www.w3.org/2000/svg">
<path d="M17.7778 7.64714C18.0272 7.5148 18.2473 7.33239 18.4246 7.11106C18.6019 6.88973 18.7326 6.63414 18.8089 6.35993C18.8852 6.08572 18.9053 5.79865 18.8681 5.51629C18.8309 5.23393 18.7372 4.96222 18.5926 4.71777C18.4433 4.43761 18.2169 4.20729 17.9407 4.05472C17.6296 3.86417 17.2742 3.76035 16.9106 3.75382C16.5469 3.74728 16.1881 3.83827 15.8705 4.01753C15.5529 4.19678 15.2879 4.45791 15.1025 4.77435C14.9171 5.09079 14.8178 5.45126 14.8148 5.81909C14.8161 6.19763 14.9205 6.56849 15.1165 6.89097C15.3125 7.21345 15.5926 7.47508 15.9259 7.64714C15.1322 7.89561 14.467 8.45 14.0741 9.1905V9.0032C14.073 8.07927 13.7649 7.18253 13.1994 6.45698C12.6338 5.73143 11.8436 5.21916 10.9556 5.00246C11.5053 4.77272 11.9593 4.35722 12.2401 3.82679C12.5209 3.29636 12.6111 2.68386 12.4953 2.0937C12.3795 1.50355 12.0649 0.972282 11.6052 0.590485C11.1454 0.208688 10.5689 0 9.97407 0C9.3792 0 8.80275 0.208688 8.343 0.590485C7.88324 0.972282 7.56865 1.50355 7.45286 2.0937C7.33708 2.68386 7.42726 3.29636 7.70803 3.82679C7.98881 4.35722 8.4428 4.77272 8.99259 5.00246C8.1142 5.22918 7.33567 5.74574 6.78022 6.47037C6.22477 7.195 5.92415 8.0863 5.92593 9.0032V9.19424C5.53303 8.45375 4.86782 7.89936 4.07407 7.65089C4.32347 7.51855 4.54355 7.33613 4.72085 7.1148C4.89815 6.89348 5.02893 6.63789 5.1052 6.36368C5.18148 6.08947 5.20163 5.8024 5.16444 5.52004C5.12724 5.23768 5.03348 4.96596 4.88889 4.72151C4.73961 4.44136 4.51318 4.21103 4.23704 4.05847C3.92622 3.86808 3.57112 3.76426 3.20779 3.75756C2.84447 3.75086 2.48587 3.84152 2.16839 4.02034C1.85092 4.19915 1.58588 4.45974 1.40018 4.77566C1.21449 5.09159 1.11476 5.45158 1.11111 5.81909C1.1124 6.19763 1.21678 6.56849 1.41279 6.89097C1.60879 7.21345 1.88885 7.47508 2.22222 7.64714C1.57963 7.84838 1.01743 8.25205 0.617666 8.79924C0.217899 9.34644 0.00148453 10.0085 0 10.6889V12H20V10.6889C19.9985 10.0085 19.7821 9.34644 19.3823 8.79924C18.9826 8.25205 18.4204 7.84838 17.7778 7.64714Z" fill="#5A20AA"/>
</svg>
