<svg width="24" height="24" viewBox="0 0 17 18" fill="none" xmlns="http://www.w3.org/2000/svg">
<path d="M13.809 10.0673C16.4043 6.97346 17.0666 2.6636 16.995 1.35812C16.995 1.21506 16.9234 1.08987 16.8339 0.982575C16.7444 0.893159 16.6191 0.821626 16.458 0.821626C15.1514 0.750093 10.8378 1.39389 7.75919 3.98696L7.04324 3.71871C5.79032 3.25375 4.37632 3.62929 3.51718 4.64864L1.53041 6.99134C1.24403 7.31324 1.38722 7.83186 1.79889 7.97492L3.92885 8.76178C3.46348 9.54865 3.1413 10.2103 2.92652 10.6753C2.74753 11.0508 2.83702 11.4979 3.1413 11.8019L6.00511 14.6811C6.29149 14.9673 6.73896 15.0567 7.13273 14.8779C7.5981 14.6633 8.26035 14.3414 9.0479 13.8764L9.81755 16.0045C9.96074 16.4158 10.4798 16.541 10.802 16.2727L13.1288 14.2877C14.1491 13.4293 14.5249 12.0165 14.0596 10.7647L13.809 10.0673ZM12.4666 7.83186C11.7864 8.51142 10.6767 8.51142 9.97864 7.83186C9.29848 7.15229 9.29848 6.04353 9.97864 5.34608C10.6588 4.66652 11.7685 4.66652 12.4666 5.34608C13.1467 6.04353 13.1467 7.15229 12.4666 7.83186Z" fill="#FB5F2C"/>
<path d="M4.77011 15.4144L3.48139 16.6841C3.23081 16.9345 3.23081 17.3637 3.48139 17.6141C3.73198 17.8644 4.16155 17.8644 4.41213 17.6141L5.70084 16.3265C5.95143 16.0761 5.95143 15.6469 5.70084 15.3965C5.43236 15.1462 5.02069 15.1462 4.77011 15.4144Z" fill="#FB5F2C"/>
<path d="M4.03609 13.7688C3.7855 13.5185 3.35593 13.5185 3.10535 13.7688L1.06489 15.8254C0.814307 16.0758 0.814307 16.505 1.06489 16.7553C1.31547 17.0057 1.74504 17.0057 1.99563 16.7553L4.03609 14.6809C4.30457 14.4305 4.30457 14.0192 4.03609 13.7688Z" fill="#FB5F2C"/>
<path d="M2.40739 13.0537C2.65797 12.8034 2.65797 12.3742 2.40739 12.1238C2.1568 11.8734 1.72723 11.8734 1.47665 12.1238L0.187937 13.4114C-0.0626457 13.6618 -0.0626457 14.091 0.187937 14.3413C0.43852 14.5917 0.868091 14.5917 1.11867 14.3413L2.40739 13.0537Z" fill="#FB5F2C"/>
</svg>
