<svg width="24" height="24" viewBox="0 0 16 16" fill="none" xmlns="http://www.w3.org/2000/svg">
<path d="M15.7063 7.82934L12.5313 4.49559C12.222 4.17074 11.7188 4.17074 11.4095 4.49559C11.1001 4.82043 11.1001 5.34871 11.4095 5.67355L14.022 8.41668L11.4063 11.1631C11.097 11.4879 11.097 12.0162 11.4063 12.3411C11.6501 12.597 12.2532 12.6298 12.5282 12.3411L15.7032 9.00731C16.0157 8.68246 16.0157 8.15746 15.7063 7.82934Z" fill="#85A32A"/>
<path d="M4.5938 4.49559C4.28442 4.17074 3.7813 4.17074 3.47192 4.49559L0.293799 7.82934C-0.0155762 8.15418 -0.0155762 8.68246 0.293799 9.00731L3.4688 12.3443C3.7438 12.6331 4.34692 12.6003 4.59067 12.3443C4.90005 12.0195 4.90005 11.4912 4.59067 11.1664L1.97817 8.42324L4.5938 5.67684C4.90317 5.34871 4.90317 4.82371 4.5938 4.49559Z" fill="#85A32A"/>
<path d="M10.2219 0.94189C9.80317 0.804077 9.35942 1.04689 9.22817 1.48986L5.25942 14.8249C5.12817 15.2645 5.35629 15.7469 5.78129 15.8683C6.23442 15.9963 6.66879 15.678 6.77504 15.3203L10.7438 1.98533C10.8719 1.54564 10.6407 1.0797 10.2219 0.94189Z" fill="#85A32A"/>
</svg>
