<svg width="66" height="66" viewBox="0 0 66 66" fill="none" xmlns="http://www.w3.org/2000/svg">
<path fill-rule="evenodd" clip-rule="evenodd" d="M33 64C50.1208 64 64 50.1208 64 33C64 15.8792 50.1208 2 33 2C15.8792 2 2 15.8792 2 33C2 50.1208 15.8792 64 33 64ZM33 66C51.2254 66 66 51.2254 66 33C66 14.7746 51.2254 0 33 0C14.7746 0 0 14.7746 0 33C0 51.2254 14.7746 66 33 66Z" fill="#3C3843"/>
<path fill-rule="evenodd" clip-rule="evenodd" d="M25.9289 28.6569L32.2928 22.2929C32.6834 21.9024 33.3165 21.9024 33.7071 22.2929L40.071 28.6569C40.4615 29.0474 40.4615 29.6805 40.071 30.0711C39.6805 30.4616 39.0473 30.4616 38.6568 30.0711L33.9999 25.4142L33.9999 44C33.9999 44.5523 33.5522 45 32.9999 45C32.4477 45 31.9999 44.5523 31.9999 44L31.9999 25.4142L27.3431 30.0711C26.9526 30.4616 26.3194 30.4616 25.9289 30.0711C25.5384 29.6805 25.5384 29.0474 25.9289 28.6569Z" fill="black"/>
</svg>
